
<svg width="194" height="194" viewBox="0 0 194 194" fill="none" xmlns="http://www.w3.org/2000/svg">
<path fill-rule="evenodd" clip-rule="evenodd" d="M91.3748 0.151416C87.5301 0.382544 86.3462 0.505866 82.2629 1.10101C77.9311 1.73233 73.9791 2.61752 69.2961 4.00522C68.4929 4.24312 67.6781 4.48089 67.4854 4.53339C66.5784 4.78074 63.1806 5.99075 61.7613 6.57201C61.5685 6.65088 60.9114 6.90814 60.301 7.14359C59.6907 7.37903 59.0334 7.64388 58.8406 7.73208C58.6477 7.82029 58.2443 7.99751 57.9442 8.12609C56.5569 8.72007 51.8918 10.9949 50.6051 11.705C49.6813 12.2149 48.2744 13.0148 48.0351 13.1665C47.9387 13.2275 47.781 13.311 47.6846 13.3522C47.5882 13.3934 47.3517 13.5398 47.1589 13.6775C46.9662 13.8153 46.3091 14.231 45.6987 14.6013C42.126 16.7688 37.6158 20.0512 34.303 22.8945C33.85 23.2834 33.2718 23.7759 33.018 23.9892C30.6562 25.9743 26.1983 30.4589 23.6034 33.4602C23.1319 34.0057 22.7193 34.4782 22.6865 34.5103C22.5726 34.6219 21.6905 35.7086 21.4004 36.0946C21.2398 36.3083 20.6065 37.1287 19.9931 37.9177C16.8724 41.9313 14.3242 45.831 11.5873 50.7814C11.1515 51.5697 9.74005 54.4031 9.08598 55.803C8.84603 56.3163 8.60632 56.8192 8.55329 56.9203C8.50025 57.0215 8.16066 57.809 7.79887 58.6704C7.43697 59.5318 7.09002 60.3276 7.02787 60.4391C6.96572 60.5505 6.91315 60.708 6.91093 60.7891C6.90872 60.8702 6.80545 61.1466 6.68127 61.4032C6.55709 61.6599 6.45382 61.9513 6.4516 62.0508C6.44938 62.1502 6.40207 62.2814 6.34635 62.3425C6.29063 62.4034 6.1633 62.6896 6.06353 62.9783C5.96365 63.2671 5.63948 64.1859 5.34323 65.0201C4.65119 66.9685 4.42024 67.6584 4.17189 68.5203C4.06091 68.9053 3.8983 69.4566 3.81033 69.7453C3.47868 70.8354 3.18465 71.9329 2.99762 72.7788C2.8912 73.2601 2.76153 73.7851 2.70943 73.9455C2.65721 74.1059 2.50045 74.7622 2.36085 75.4039C2.22137 76.0456 2.03235 76.8718 1.941 77.2398C1.84965 77.6077 1.77559 78.0278 1.7764 78.1731C1.77722 78.3185 1.70164 78.8049 1.60842 79.2541C1.4534 80.0015 1.30796 80.856 0.953182 83.1043C0.882273 83.5535 0.749683 84.6035 0.658448 85.4377C0.567329 86.272 0.46523 87.0857 0.431704 87.2462C0.145615 88.6133 -0.0912932 96.4079 0.0346373 100.313C0.147251 103.808 0.557752 108.643 0.848163 109.895C0.916852 110.191 1.0179 110.821 1.07257 111.295C1.20294 112.425 1.46765 113.977 1.7764 115.423C1.91355 116.064 2.09555 116.931 2.18083 117.348C2.26623 117.765 2.42451 118.474 2.53257 118.923C2.64074 119.372 2.79903 120.054 2.88443 120.439C2.96982 120.824 3.12297 121.441 3.22495 121.81C3.59784 123.16 3.78253 123.836 3.93439 124.406C4.26476 125.647 6.18969 131.233 6.34518 131.401C6.40149 131.462 6.44763 131.587 6.44763 131.68C6.44763 131.772 6.54705 132.064 6.66854 132.327C6.79003 132.591 6.97822 133.043 7.08675 133.332C7.19515 133.621 7.35858 134.005 7.44993 134.187C7.54117 134.369 7.61582 134.562 7.61582 134.616C7.61582 134.671 7.7789 135.074 7.97807 135.511C8.17736 135.949 8.47198 136.596 8.63296 136.949C9.1021 137.978 11.3354 142.426 11.7673 143.191C11.9846 143.576 12.2008 143.969 12.2477 144.066C12.8557 145.314 17.0869 151.994 17.3345 152.096C17.3863 152.118 17.4286 152.183 17.4286 152.242C17.4286 152.344 18.9739 154.491 19.395 154.974C19.5588 155.162 20.9499 156.946 21.3059 157.425C21.3537 157.489 22.2462 158.539 23.2893 159.758C25.0212 161.782 29.6637 166.557 31.5939 168.299C33.2548 169.799 35.1263 171.41 36.1716 172.242C37.8984 173.616 38.8466 174.35 39.2737 174.644C39.4985 174.799 39.7088 174.959 39.741 174.999C39.7731 175.04 40.3232 175.427 40.9633 175.86C42.6287 176.986 42.832 177.132 42.8755 177.23C42.897 177.278 42.959 177.317 43.0134 177.317C43.0677 177.317 43.4445 177.54 43.8505 177.812C44.2567 178.085 44.6781 178.36 44.787 178.425C45.2986 178.728 47.5037 180.082 47.7813 180.263C47.953 180.375 48.238 180.524 48.4147 180.595C48.5915 180.666 48.736 180.766 48.736 180.817C48.736 180.869 48.8806 180.968 49.0572 181.037C49.234 181.107 49.8516 181.427 50.4299 181.75C51.0081 182.072 52.8743 183.022 54.5769 183.86C56.2796 184.699 57.8121 185.46 57.9826 185.551C58.1532 185.643 58.3703 185.718 58.4649 185.718C58.5595 185.718 58.7024 185.796 58.7824 185.893C58.8624 185.989 59.0264 186.068 59.1469 186.068C59.2673 186.068 59.6945 186.222 60.0962 186.41C60.498 186.598 60.9718 186.788 61.149 186.831C61.3263 186.875 61.5003 186.957 61.5356 187.014C61.571 187.071 61.707 187.118 61.8378 187.118C61.9686 187.118 62.2152 187.194 62.3858 187.286C62.8312 187.529 63.4624 187.801 63.8658 187.926C64.0576 187.985 64.5036 188.145 64.857 188.281C66.151 188.78 66.441 188.886 66.7845 188.982C67.2912 189.125 67.9004 189.34 68.3031 189.519C68.4959 189.605 68.8512 189.709 69.0929 189.751C69.3346 189.793 69.5611 189.874 69.5963 189.931C69.6315 189.988 69.8281 190.035 70.0331 190.035C70.2381 190.036 70.5564 190.114 70.7404 190.21C70.9245 190.306 71.1653 190.385 71.2757 190.385C71.386 190.385 71.8399 190.492 72.2845 190.623C73.2302 190.903 73.4513 190.963 75.3122 191.439C76.0832 191.637 76.8718 191.824 77.0645 191.856C77.2573 191.887 77.7567 191.987 78.1743 192.079C80.0934 192.498 81.8876 192.812 83.1391 192.948C83.7173 193.011 84.427 193.113 84.7161 193.176C85.0053 193.238 85.6624 193.322 86.1764 193.361C86.6904 193.401 87.4435 193.484 87.85 193.546C89.0317 193.726 94.6111 193.999 97.1519 194C101.26 194.002 105.622 193.732 109.423 193.238C112.811 192.799 114.615 192.49 117.192 191.908C117.802 191.77 118.512 191.613 118.769 191.559C119.291 191.45 122.042 190.73 123.033 190.444C123.386 190.342 123.885 190.205 124.142 190.14C125.459 189.809 131.191 187.801 131.95 187.406C132.131 187.312 132.336 187.234 132.405 187.234C132.534 187.234 134.949 186.215 136.467 185.519C137.571 185.013 142.029 182.784 142.916 182.294C143.283 182.091 143.861 181.775 144.201 181.592C144.541 181.408 145.214 181.023 145.695 180.736C146.177 180.449 146.65 180.169 146.747 180.114C147.941 179.437 152.603 176.351 153.907 175.375C154.323 175.064 154.779 174.73 154.92 174.634C155.339 174.347 158.931 171.499 159.409 171.075C159.481 171.011 159.829 170.715 160.182 170.417C160.535 170.119 161.06 169.655 161.349 169.386C161.638 169.117 162.321 168.494 162.866 168.003C164.528 166.503 167.218 163.752 169.674 161.041C170.23 160.428 171.289 159.168 171.98 158.299C172.205 158.016 172.759 157.336 173.211 156.788C174.047 155.776 175.162 154.29 176.536 152.355C176.953 151.767 177.518 150.974 177.791 150.593C178.065 150.211 178.288 149.876 178.288 149.849C178.288 149.821 178.499 149.481 178.758 149.093C179.326 148.238 181.11 145.294 181.574 144.445C181.759 144.108 182.075 143.53 182.277 143.161C183.533 140.869 185.541 136.729 186.223 135.023C186.389 134.609 186.827 133.629 186.94 133.421C187 133.309 187.049 133.139 187.049 133.041C187.049 132.944 187.154 132.668 187.283 132.429C187.411 132.189 187.517 131.904 187.517 131.794C187.517 131.685 187.565 131.565 187.624 131.529C187.684 131.492 187.768 131.302 187.811 131.106C187.854 130.91 187.963 130.608 188.053 130.436C188.142 130.264 188.216 130.059 188.217 129.981C188.217 129.903 188.302 129.641 188.406 129.398C188.815 128.437 188.892 128.231 189.089 127.556C189.202 127.171 189.361 126.673 189.441 126.448C189.595 126.02 189.798 125.339 190.203 123.881C190.603 122.445 190.765 121.873 190.956 121.214C191.056 120.869 191.138 120.506 191.138 120.407C191.138 120.308 191.213 119.959 191.305 119.633C191.693 118.26 192.054 116.699 192.185 115.831C192.239 115.478 192.339 114.953 192.408 114.664C192.584 113.935 192.766 112.797 192.891 111.657C192.949 111.126 193.032 110.635 193.075 110.565C193.118 110.496 193.223 109.775 193.308 108.964C193.393 108.153 193.515 106.99 193.579 106.38C193.957 102.802 194 101.876 194 97.3383C194 92.8243 193.872 89.8824 193.574 87.5378C193.509 87.0245 193.381 85.9219 193.289 85.0877C193.197 84.2535 193.046 83.046 192.953 82.4043C192.798 81.3397 192.707 80.7838 192.31 78.4957C192.098 77.2726 191.714 75.4262 191.65 75.3233C191.617 75.271 191.547 74.979 191.494 74.6744C191.441 74.3697 191.204 73.3855 190.968 72.4871C190.731 71.5887 190.488 70.6437 190.426 70.387C190.365 70.1303 190.268 69.7891 190.212 69.6286C190.155 69.4682 189.915 68.7069 189.679 67.9369C189.443 67.1669 189.205 66.4318 189.15 66.3035C189.095 66.1751 189.016 65.9389 188.974 65.7785C188.834 65.2371 187.773 62.3513 187.281 61.1699C187.174 60.9132 187.017 60.5194 186.933 60.2949C186.849 60.0703 186.631 59.5547 186.448 59.1491C186.265 58.7436 186.115 58.3863 186.115 58.3552C186.115 58.3241 186.006 58.0521 185.874 57.7508C184.247 54.0523 181.589 49.0105 179.71 46.0608C178.71 44.4908 176.38 41.0205 175.925 40.4243C175.651 40.0639 175.216 39.4691 174.959 39.1025C174.702 38.7359 174.148 38.0121 173.729 37.4939C173.31 36.9759 172.725 36.237 172.428 35.852C172.131 35.467 171.773 35.0207 171.632 34.8603C171.491 34.6999 171.156 34.3074 170.889 33.9882C168.865 31.5725 164.036 26.667 161.524 24.4755C160.689 23.7467 159.953 23.0943 159.889 23.0259C159.553 22.6682 155.407 19.4386 153.931 18.3854C153.674 18.202 153.227 17.8799 152.938 17.6695C150.902 16.1877 146.504 13.4498 143.534 11.8143C142.374 11.1753 138.188 9.073 137.285 8.67527C136.867 8.49151 136.236 8.21371 135.883 8.05795C135.529 7.90231 135.056 7.6965 134.831 7.60071C134.606 7.50493 134.317 7.3795 134.189 7.32198C134.06 7.26458 133.456 7.02867 132.845 6.79789C132.235 6.56711 131.552 6.30472 131.327 6.21476C130.637 5.93918 126.851 4.61227 126.479 4.51578C126.286 4.46584 125.839 4.33762 125.486 4.23098C124.518 3.93883 123.888 3.75764 122.857 3.47541C122.343 3.33471 121.66 3.14628 121.339 3.05679C119.292 2.4865 115.451 1.69417 112.052 1.14068C105.924 0.143014 97.9004 -0.240837 91.3748 0.151416ZM93.8864 7.9694C93.8222 7.9925 92.5868 8.06904 91.1412 8.13939C88.5492 8.26551 86.774 8.43935 84.5993 8.78004C83.9889 8.87571 82.9376 9.0366 82.2629 9.13775C81.5883 9.23891 80.6946 9.3963 80.277 9.48754C79.8594 9.57866 78.6766 9.83627 77.6486 10.0598C74.826 10.6736 71.2 11.6582 68.7704 12.4705C67.4716 12.9048 63.8433 14.2562 63.1631 14.5592C62.31 14.9392 61.8241 15.1426 61.7703 15.1426C61.736 15.1426 61.2994 15.3301 60.8001 15.5594C60.3007 15.7885 59.7082 16.0584 59.4833 16.1589C58.0444 16.8022 53.7537 19.0078 52.9146 19.5355C52.6749 19.6862 52.4428 19.8095 52.3987 19.8095C52.3154 19.8095 51.1005 20.5406 49.7874 21.3809C49.3697 21.6482 48.6987 22.0733 48.2963 22.3257C47.3655 22.9096 44.2376 25.0843 43.8717 25.4022C43.7191 25.5348 43.564 25.6432 43.527 25.6432C43.4666 25.6432 41.041 27.5054 40.7194 27.7986C40.6472 27.8644 40.3353 28.1283 40.0263 28.385C36.8801 30.998 33.3437 34.3764 30.7447 37.2521C29.4055 38.7339 29.1753 38.9956 28.4864 39.8194C27.5072 40.9905 27.4529 41.0579 27.0723 41.5713C26.883 41.8267 26.6942 42.0619 26.6528 42.094C26.5528 42.1714 24.4895 44.9472 23.9704 45.7024C23.4202 46.503 22.4763 47.8416 22.3601 47.9859C22.3084 48.0501 21.9075 48.6801 21.4692 49.386C21.0309 50.0919 20.5536 50.8531 20.4085 51.0777C19.2906 52.8082 16.4916 58.1601 15.5635 60.3418C15.2933 60.9771 15.0256 61.5809 14.9689 61.6835C14.5987 62.3525 13.5389 65.1016 12.6256 67.7619C12.3723 68.4998 12.1171 69.2086 12.0583 69.337C11.9997 69.4653 11.9163 69.7541 11.873 69.9787C11.8297 70.2033 11.7539 70.4395 11.7045 70.5037C11.6551 70.5679 11.5783 70.8041 11.5338 71.0287C11.4894 71.2533 11.3829 71.6471 11.2972 71.9038C11.1363 72.3861 10.9373 73.1027 10.6008 74.4122C10.4936 74.8293 10.3327 75.4331 10.2432 75.7539C10.0301 76.5179 9.78713 77.6588 9.48562 79.3124C9.35104 80.0504 9.1882 80.8642 9.12383 81.1209C9.05946 81.3775 8.96122 81.9551 8.90561 82.4043C8.80375 83.2259 8.64557 84.3256 8.42736 85.7294C8.12573 87.6691 7.87329 91.2849 7.7838 94.9465C7.70787 98.0553 7.85565 103.08 8.07632 104.889C8.14115 105.42 8.24909 106.354 8.31638 106.964C8.5117 108.736 9.00947 112.036 9.29287 113.439C9.95651 116.722 10.1372 117.506 10.7808 119.885C10.9154 120.383 11.0758 120.997 11.1374 121.252C11.199 121.506 11.2946 121.768 11.3497 121.835C11.4048 121.902 11.4878 122.166 11.534 122.423C11.5803 122.68 11.6569 122.942 11.7045 123.006C11.752 123.07 11.8287 123.333 11.8749 123.59C11.9212 123.846 11.9993 124.109 12.0486 124.173C12.098 124.237 12.2789 124.731 12.4505 125.27C12.6222 125.809 12.8973 126.597 13.0617 127.02C13.2262 127.443 13.4682 128.079 13.5995 128.432C13.7309 128.784 13.8822 129.178 13.9356 129.307C13.989 129.435 14.2179 129.995 14.4442 130.551C14.6706 131.107 15.0929 132.065 15.3829 132.681C15.6728 133.296 15.9099 133.825 15.9099 133.856C15.9099 133.938 17.8455 137.818 18.2669 138.582C20.4412 142.523 23.4602 147.145 25.888 150.249C26.5672 151.118 27.9675 152.862 28.1357 153.049C28.2222 153.146 28.7796 153.802 29.3745 154.508C32.8772 158.665 38.7568 164.256 42.7143 167.193C43.2956 167.624 43.8472 168.043 43.9402 168.123C44.0332 168.203 44.3749 168.465 44.6996 168.704C45.0242 168.943 45.3424 169.184 45.4067 169.238C45.512 169.328 46.5047 170.014 48.5973 171.446C49.0029 171.723 49.3804 171.95 49.436 171.95C49.4916 171.95 49.6065 172.016 49.6914 172.096C49.9279 172.32 51.4854 173.337 51.731 173.429C51.9999 173.529 52.6355 173.961 52.6883 174.08C52.7098 174.128 52.8175 174.167 52.9278 174.167C53.0382 174.167 53.1784 174.217 53.2393 174.277C53.3684 174.405 54.355 174.958 55.2778 175.418C55.6312 175.595 55.9466 175.772 55.9787 175.812C56.0109 175.853 56.3263 176.028 56.6797 176.203C57.033 176.377 57.7953 176.777 58.3735 177.092C59.5203 177.716 59.9076 177.901 60.075 177.901C60.135 177.901 60.1842 177.947 60.1842 178.005C60.1842 178.062 60.3287 178.142 60.5055 178.184C60.857 178.266 61.1554 178.394 62.2595 178.939C63.05 179.33 63.6556 179.406 63.7623 179.129C63.7986 179.034 63.7527 178.881 63.6603 178.789C63.5679 178.697 63.1629 177.947 62.7603 177.123C62.3577 176.299 61.9811 175.547 61.9233 175.45C61.8655 175.354 61.7857 175.197 61.7461 175.1C61.7064 175.004 61.5281 174.61 61.3499 174.225C60.7223 172.87 60.65 172.702 60.5432 172.357C60.4839 172.165 60.3226 171.72 60.1849 171.367C59.9451 170.753 59.668 169.882 59.312 168.625C59.2213 168.304 59.0701 167.779 58.9762 167.458C58.8823 167.138 58.7706 166.691 58.728 166.467C58.6853 166.242 58.5778 165.717 58.4891 165.3C58.2532 164.192 57.9983 162.74 57.7719 161.216L57.5725 159.875L57.5787 156.083L57.5849 152.291L57.8267 150.949C58.0967 149.45 58.2965 148.655 58.6625 147.624C58.7992 147.239 58.966 146.744 59.0333 146.524C59.2078 145.952 60.0596 144.344 60.7173 143.345C61.2796 142.49 61.4747 142.231 62.2705 141.284C62.6765 140.801 63.9534 139.636 64.6871 139.078C65.7752 138.252 66.1591 137.993 66.8651 137.613C67.295 137.382 67.7418 137.139 67.858 137.074C68.2723 136.84 69.5711 136.347 71.0868 135.847C71.933 135.568 72.7568 135.288 72.9174 135.224C73.0781 135.16 73.4461 135.015 73.7352 134.902C77.1788 133.559 79.8253 131.569 82.0169 128.675C82.9641 127.424 83.3377 126.807 84.1777 125.106C85.0312 123.378 85.4478 122.359 85.8462 121.023C86.9725 117.247 87.0677 116.338 87.1731 108.364L87.2587 101.889L87.4533 100.722C87.5603 100.08 87.7521 99.1613 87.8795 98.6801C88.0068 98.1988 88.1646 97.5971 88.2304 97.3429C88.296 97.0888 88.3931 96.8262 88.4462 96.7595C88.4992 96.6929 88.582 96.507 88.6301 96.3466C88.7249 96.0312 89.7662 93.867 90.0032 93.4927C91.0583 91.827 92.5161 89.725 93.6477 88.2379C94.0384 87.7245 94.5005 87.0945 94.6749 86.8378C94.8492 86.5811 95.1232 86.2136 95.2838 86.0211C95.6924 85.5311 95.7264 85.4877 96.0585 85.0294C96.6773 84.1755 106.151 71.6195 106.355 71.3827C106.436 71.2887 107.75 69.5561 109.275 67.5325C110.799 65.5089 112.166 63.7016 112.312 63.5159C112.458 63.3303 112.765 62.9103 112.995 62.5826C113.224 62.2548 113.635 61.6978 113.907 61.3449C114.179 60.992 114.701 60.3103 115.067 59.8299C115.432 59.3496 115.8 58.8771 115.885 58.7799C115.969 58.6827 116.352 58.1831 116.737 57.6697C117.121 57.1564 117.516 56.6392 117.615 56.5203C117.713 56.4015 118.535 55.3252 119.44 54.1285C120.346 52.9319 121.487 51.454 121.977 50.8444C122.467 50.2348 123.229 49.2635 123.671 48.686C124.113 48.1084 124.508 47.6097 124.547 47.5776C124.587 47.5455 125.088 46.9155 125.661 46.1775C126.234 45.4395 126.733 44.8095 126.77 44.7774C126.807 44.7453 127.044 44.4566 127.297 44.1357C127.719 43.6002 127.908 43.3727 128.756 42.3774C128.916 42.1894 129.255 41.7731 129.51 41.4523C130.847 39.77 133.202 37.1003 134.545 35.7445C135.987 34.2884 138.066 32.5757 139.504 31.6588C139.793 31.4744 140.161 31.2363 140.322 31.1297C140.721 30.865 143.471 29.4934 143.603 29.4934C143.854 29.4934 143.53 30.2658 142.772 31.4768C142.712 31.573 142.241 32.3868 141.726 33.2852C141.211 34.1836 140.736 34.9974 140.672 35.0936C140.607 35.1899 140.489 35.3999 140.41 35.5603C140.262 35.8595 139.004 38.0463 138.799 38.3604C138.736 38.4567 138.649 38.6133 138.604 38.7085C138.53 38.8683 136.128 43.0984 135.887 43.494C135.56 44.0312 134.299 46.2446 134.261 46.3476C134.237 46.4145 133.961 46.8964 133.648 47.4188C133.335 47.941 133.079 48.4055 133.079 48.4509C133.079 48.4961 132.982 48.6727 132.864 48.843C132.745 49.0133 132.464 49.4939 132.239 49.911C131.664 50.9767 131.385 51.4657 130.731 52.5524C130.416 53.0746 130.159 53.5297 130.159 53.5636C130.159 53.5975 129.927 54.0171 129.643 54.4961C129.36 54.9751 128.946 55.7012 128.724 56.1099C128.502 56.5186 128.209 57.0368 128.073 57.2614C127.937 57.486 127.777 57.7747 127.719 57.9031C127.661 58.0314 127.213 58.8094 126.725 59.632C126.236 60.4546 125.836 61.1567 125.836 61.1923C125.836 61.2279 125.6 61.6462 125.311 62.1218C125.021 62.5974 124.785 63.0138 124.785 63.047C124.785 63.0803 124.251 64.0365 123.598 65.1721C122.291 67.4434 120.618 70.4168 119.957 71.64C119.724 72.0725 119.4 72.6358 119.238 72.8919C119.076 73.1479 118.944 73.3906 118.944 73.4311C118.944 73.4716 118.681 73.9393 118.36 74.4705C118.039 75.0018 117.776 75.4695 117.776 75.51C117.776 75.5505 117.653 75.7794 117.503 76.0188C117.352 76.2581 117.016 76.853 116.755 77.3408C116.079 78.6046 116.098 78.5705 115.447 79.6787C115.122 80.233 114.855 80.7277 114.855 80.7779C114.855 80.828 114.783 80.952 114.695 81.0533C114.607 81.1547 114.363 81.5526 114.152 81.9376C113.233 83.6192 111.974 85.8642 111.435 86.7795C110.76 87.9273 108.59 91.8054 108.333 92.3214C108.238 92.5139 108.066 92.8065 107.951 92.9716C107.694 93.3426 106.424 95.5682 105.914 96.542C105.379 97.5639 104.348 99.381 104.091 99.7546C103.972 99.9285 103.874 100.098 103.874 100.132C103.874 100.166 103.53 100.785 103.109 101.508C102.688 102.231 102.303 102.901 102.253 102.997C102.071 103.349 99.7492 107.172 99.0292 108.306C98.6215 108.947 98.0652 109.84 97.7929 110.289C97.2119 111.248 96.4121 112.501 95.8577 113.323C95.6409 113.645 95.4635 113.956 95.4635 114.014C95.4635 114.073 95.3872 114.205 95.2941 114.308C95.1429 114.474 94.9113 114.884 93.9045 116.764C93.75 117.053 93.3273 117.841 92.9654 118.514C92.2822 119.786 91.2052 121.963 90.8581 122.773C90.7481 123.03 90.6106 123.345 90.5524 123.473C90.4942 123.601 90.3386 123.995 90.2066 124.348C90.0746 124.701 89.9202 125.095 89.8636 125.223C89.807 125.351 89.5745 125.981 89.3469 126.623C88.0519 130.275 87.5302 133.015 87.5236 136.199C87.5183 138.835 87.7694 140.381 88.8105 144.124C89.0069 144.83 89.2787 145.88 89.4147 146.457L89.6619 147.507L89.668 149.841L89.674 152.174L89.4682 153.049C89.0093 155.001 88.445 156.617 87.8791 157.6C87.8237 157.696 87.722 157.906 87.6531 158.066C87.2436 159.019 85.8799 160.981 85.0958 161.745C84.9513 161.886 84.833 162.03 84.833 162.065C84.833 162.265 82.8705 163.984 81.8364 164.689C81.1832 165.134 80.3656 165.65 80.313 165.65C80.2797 165.65 80.0189 165.808 79.7332 166C79.4476 166.193 79.1098 166.35 78.9824 166.35C78.8552 166.35 78.7208 166.429 78.6839 166.525C78.6468 166.621 78.5024 166.7 78.3631 166.7C78.2236 166.7 78.0057 166.772 77.8791 166.86C77.7523 166.948 77.4646 167.059 77.2397 167.107C77.0149 167.155 76.7783 167.233 76.7141 167.282C76.6498 167.331 76.3344 167.408 76.0131 167.455C75.6919 167.501 75.3765 167.579 75.3122 167.629C75.1074 167.788 73.7463 167.884 71.8142 167.876L69.9386 167.868L69.1208 168.064C68.6711 168.173 68.2336 168.33 68.1488 168.414C68.0639 168.498 67.9238 168.567 67.8375 168.567C67.6453 168.567 66.7966 169.513 66.5416 170.012C66.4394 170.212 66.2845 170.804 66.1977 171.328L66.0396 172.28L66.2009 173.37C66.3524 174.394 66.5891 175.327 66.8325 175.859C67.7907 177.953 68.2894 178.837 69.0965 179.873C69.8914 180.893 70.6961 181.638 71.3647 181.973C71.6726 182.127 72.064 182.324 72.2345 182.41C72.4051 182.497 72.6267 182.567 72.727 182.567C72.8274 182.567 73.0822 182.641 73.2931 182.731C73.6483 182.882 73.9653 182.978 75.6335 183.436C76.985 183.807 78.0614 184.049 79.8098 184.377C80.824 184.567 81.6551 184.734 82.7469 184.968C83.1738 185.059 83.6732 185.134 83.8567 185.134C84.0402 185.134 84.7161 185.209 85.3586 185.302C87.7158 185.643 88.6348 185.728 91.7541 185.894C98.1134 186.233 102.6 186.029 109.715 185.075C112.683 184.678 117.591 183.614 120.755 182.683C121.14 182.569 121.771 182.386 122.157 182.276C122.777 182.099 125.312 181.266 126.771 180.761C127.273 180.587 127.962 180.321 128.465 180.107C128.593 180.052 128.987 179.899 129.341 179.767C129.694 179.636 130.089 179.479 130.217 179.42C130.346 179.362 130.713 179.201 131.035 179.064C131.62 178.813 131.851 178.709 133.371 178.012C134.486 177.5 137.639 175.92 138.57 175.406C138.987 175.176 139.408 174.952 139.504 174.908C139.806 174.771 143.627 172.512 144.118 172.18C144.375 172.006 145.348 171.357 146.28 170.737C148.282 169.403 149.337 168.659 150.016 168.1C150.289 167.876 150.598 167.644 150.703 167.586C150.808 167.527 151.057 167.344 151.257 167.177C151.856 166.678 152.138 166.452 152.638 166.069C153.167 165.663 153.238 165.604 155.149 163.965C157.085 162.305 157.573 161.856 159.582 159.886C163.603 155.942 166.659 152.366 170.03 147.665C170.428 147.11 170.99 146.326 171.279 145.923C171.878 145.088 172.464 144.18 173.521 142.452C174.479 140.885 174.545 140.772 175.068 139.807C175.312 139.358 175.623 138.807 175.759 138.582C176.404 137.522 177.306 135.711 178.52 133.04C179.061 131.849 180.154 129.273 180.277 128.898C180.33 128.738 180.487 128.318 180.625 127.965C181.076 126.818 182.045 124.064 182.103 123.765C182.135 123.604 182.204 123.368 182.258 123.24C182.434 122.819 183.004 120.939 183.195 120.148C183.249 119.923 183.407 119.319 183.546 118.806C183.978 117.211 184.151 116.502 184.311 115.656C184.57 114.294 184.825 113.133 184.888 113.031C184.921 112.978 184.999 112.497 185.062 111.962C185.124 111.427 185.225 110.7 185.285 110.347C185.778 107.474 186.101 103.977 186.222 100.197L186.324 96.9883L186.168 93.0214C186.025 89.3851 185.837 87.012 185.534 85.0294C185.47 84.6123 185.334 83.7197 185.231 83.046C185.006 81.5727 184.661 79.762 184.307 78.2041C184.22 77.819 184.069 77.1365 183.971 76.6873C183.874 76.2381 183.68 75.4506 183.54 74.9372C183.4 74.4239 183.248 73.8201 183.202 73.5955C183.155 73.3709 183.057 73.0034 182.983 72.7788C182.651 71.7598 182.163 70.1169 182.083 69.7492C182.036 69.5267 181.955 69.2642 181.904 69.1658C181.853 69.0674 181.705 68.6719 181.576 68.2869C181.218 67.2234 180.615 65.5296 180.454 65.1368C180.375 64.9442 180.137 64.3405 179.926 63.795C179.578 62.8977 179.277 62.1655 178.989 61.5199C178.932 61.3916 178.772 61.0241 178.634 60.7032C177.763 58.6779 175.658 54.5044 175.014 53.5279C174.951 53.4316 174.865 53.2741 174.823 53.1778C174.345 52.077 170.124 45.6003 168.74 43.8441C168.462 43.4911 167.935 42.8086 167.569 42.3273C166.998 41.578 166.383 40.8263 164.854 39.0131C163.914 37.8989 162.414 36.2949 160.576 34.4393C158.198 32.038 157.479 31.3679 154.706 28.9683C153.83 28.2101 151.954 26.7021 151.376 26.2919C151.111 26.1033 150.316 25.5221 149.609 25.0003C148.42 24.1227 145.669 22.251 144.796 21.7262C144.59 21.6026 143.534 20.9641 142.449 20.3076C140.745 19.2765 134.84 16.2102 133.656 15.7419C133.435 15.6543 133.044 15.49 132.787 15.3767C130.689 14.4521 126.067 12.7033 124.142 12.1057C121.81 11.3817 118.965 10.6221 117.133 10.2342C116.555 10.1117 115.767 9.93661 115.381 9.84491C110.449 8.67177 102.854 7.89333 96.5732 7.91748C95.1597 7.92296 93.9507 7.9463 93.8864 7.9694ZM52.1821 33.2339C51.6039 33.3564 51.01 33.51 50.8624 33.5751C50.7149 33.6402 50.5046 33.6953 50.3952 33.6975C50.2857 33.6997 49.9859 33.8029 49.7289 33.9269C49.4719 34.0509 49.2243 34.1541 49.1785 34.1563C49.0516 34.1623 47.4607 34.9514 46.8621 35.3052C44.5834 36.6518 41.7892 39.1963 39.1523 42.3261C38.8014 42.7425 38.4538 43.1363 38.3798 43.2012C38.3057 43.2659 37.5589 44.2378 36.7201 45.3608C35.8814 46.4838 35.0861 47.5441 34.9528 47.7171C34.4363 48.3874 32.1738 51.7591 31.7583 52.4778C31.5913 52.7666 31.3183 53.2916 31.1515 53.6445C30.9847 53.9975 30.7898 54.3912 30.7185 54.5196C30.647 54.6479 30.5648 55.1561 30.5359 55.6491L30.4832 56.5451L30.7285 56.9416C31.2306 57.7529 31.8125 57.7027 32.8651 56.7576C33.9504 55.7831 38.145 51.727 44.0386 45.9531C46.4343 43.606 48.5625 41.5937 48.7679 41.4814C48.9732 41.3692 49.3653 41.2773 49.6392 41.2773H50.1371L50.5834 41.6799C50.8288 41.9013 51.0879 42.272 51.159 42.5035L51.2884 42.9243L51.1135 43.3551L50.9386 43.7857L42.9116 51.7808C38.0797 56.5935 34.8229 59.9248 34.7295 60.1498C34.54 60.607 34.6206 60.9727 35.0014 61.3832L35.2907 61.6949L35.7343 61.6908C35.9783 61.6885 36.2934 61.6226 36.4345 61.5442C36.6657 61.4158 38.5266 59.6546 41.9605 56.3142C44.5962 53.7502 50.3855 48.1333 51.7508 46.8153C52.5416 46.052 53.3564 45.3568 53.5615 45.2706L53.9344 45.1138L54.4362 45.2539C55.2868 45.4915 55.8993 46.4815 55.696 47.2904C55.6503 47.4722 53.996 49.1953 51.4484 51.7145C44.2532 58.8298 39.9344 63.1415 39.4197 63.7239L38.9232 64.2855V64.7829C38.9232 65.6796 39.5864 66.1775 40.3533 65.8564C40.5627 65.7688 41.8641 64.5993 43.2455 63.2575C44.6269 61.9159 46.172 60.4247 46.6792 59.9439C47.6914 58.9844 48.1051 58.585 51.029 55.7446C57.0194 49.9254 57.4315 49.5466 57.9456 49.3891C58.4163 49.2449 59.0285 49.4371 59.437 49.8572C59.8847 50.3177 60.0291 50.8949 59.8398 51.4677L59.706 51.8729L56.0609 55.4748C54.056 57.4559 50.9477 60.519 49.1535 62.2818C44.1694 67.1783 43.026 68.3652 42.947 68.7243C42.6974 69.8597 43.8303 70.6435 44.718 69.9495C45.1599 69.604 46.1711 68.6611 47.5645 67.2952C48.1864 66.6856 49.7163 65.2071 50.9643 64.0097C52.2124 62.8123 53.9248 61.1585 54.7697 60.3345C60.3993 54.8445 61.2745 54.0276 61.9066 53.6737C62.6026 53.2839 63.369 53.6779 63.9197 54.7088L64.1455 55.1313L64.0261 55.5839L63.9069 56.0363L60.556 59.3376C58.7131 61.1532 55.0102 64.8021 52.3271 67.4463C49.6441 70.0904 47.3443 72.4175 47.2163 72.6176C46.7475 73.3508 47.0512 74.306 47.806 74.4716L48.1583 74.5488L48.6124 74.2763C49.0269 74.0277 50.9215 72.2446 56.0307 67.2952C58.5408 64.8636 61.4859 61.9969 62.863 60.6449C65.9398 57.6241 66.314 57.3954 67.2024 57.9934C67.715 58.3384 68.1279 58.9585 68.1279 59.3834C68.1279 59.5689 68.0275 59.9156 67.905 60.1537C67.7786 60.399 65.3183 62.9113 62.2254 65.9535C59.2242 68.9053 55.4931 72.5962 53.9341 74.1555L51.0992 76.9906L51.0303 77.3349C50.9088 77.9417 51.282 78.5187 51.8901 78.664C52.4131 78.7891 52.8438 78.4259 57.624 73.8289C57.8575 73.6043 58.4898 73.0043 59.0289 72.4955C60.8043 70.8201 65.2201 66.5751 67.4879 64.3637L69.7165 62.1904L70.0929 62.1078C70.7231 61.9696 71.3305 62.1384 71.7469 62.5676L72.1261 62.9584L72.1844 63.4741C72.2498 64.0538 72.0793 64.4633 71.5406 65.0201C71.3544 65.2126 68.5103 68.0215 65.2204 71.2621C55.038 81.2917 54.993 81.3393 55.1343 81.926C55.1666 82.0608 55.32 82.3415 55.4751 82.5501L55.757 82.9293H56.261C56.874 82.9293 57.0106 82.831 58.7824 81.1141C59.5213 80.3981 60.8059 79.1617 61.6372 78.3665C62.4685 77.5712 63.9404 76.1535 64.9081 75.2159C65.8759 74.2783 66.9632 73.2282 67.3245 72.8824C67.6857 72.5367 69.2276 71.0471 70.7508 69.5723C72.2741 68.0974 73.6608 66.7984 73.8323 66.6853C74.0037 66.5724 74.3543 66.48 74.6113 66.48C75.7365 66.48 76.491 67.6515 76.0731 68.7495C76.0098 68.916 72.2438 72.7555 67.7043 77.2817L59.4508 85.511L59.4418 86.1321C59.4283 87.0653 59.8619 87.4358 60.7939 87.2869L61.2709 87.2107L63.4436 85.0874C64.6385 83.9196 65.8312 82.7594 66.094 82.5091C67.0248 81.6228 72.5148 76.3218 73.5734 75.2873C74.1645 74.7097 75.2968 73.5996 76.0899 72.8202C76.883 72.0408 77.7412 71.2926 77.9973 71.1576C78.8025 70.7328 79.3766 70.8723 79.9227 71.6253C80.2977 72.1423 80.3711 72.6334 80.1571 73.1956C80.0911 73.3689 77.6071 75.9391 74.6374 78.9071C63.8156 89.7222 63.5403 90.0227 63.7363 90.8032C63.8245 91.1539 64.465 91.6174 64.8209 91.5879C65.2754 91.5503 66.0267 90.9958 67.3102 89.7503C67.9848 89.0957 68.6878 88.4229 68.8724 88.2555C69.4503 87.7314 71.8393 85.4774 72.7865 84.5627C73.2848 84.0814 74.5039 82.9054 75.4953 81.9491C76.4868 80.993 78.3346 79.1973 79.6015 77.9587L81.9047 75.7067L82.3835 75.5779L82.8622 75.4492L83.2463 75.5758C83.6763 75.7175 84.0163 76.0456 84.2859 76.5793L84.4672 76.9378L84.3698 77.3694C84.2371 77.9567 84.0193 78.2616 83.0363 79.2359C74.8121 87.3878 68.6426 93.56 68.4424 93.8363L68.1899 94.1843L68.1882 94.9103L68.1863 95.6361L68.4199 95.8126C68.5522 95.9126 68.901 95.9908 69.2239 95.9929L69.7943 95.9966L70.6796 95.1507C71.1663 94.6856 72.2648 93.6245 73.1205 92.793C73.9761 91.9615 74.7314 91.2471 74.7989 91.2053C74.8665 91.1637 75.6674 90.4002 76.5787 89.5087C77.49 88.6173 78.9183 87.235 79.7527 86.4369C80.5873 85.639 82.1374 84.1423 83.1975 83.1111C84.2576 82.0799 85.3732 81.0344 85.6767 80.7879L86.2284 80.3396L86.7865 80.322L87.3446 80.3044L87.7124 80.5801C87.9149 80.7316 88.174 81.0629 88.2882 81.3162L88.4961 81.7767L88.3418 82.2071C88.257 82.4439 88.0587 82.7951 87.901 82.9876C87.7434 83.1801 84.26 86.7008 80.16 90.8114L72.7057 98.2854L72.5194 98.7303C72.2806 99.3016 72.2841 99.6633 72.5324 100.042C72.9172 100.628 73.8894 100.818 74.914 100.507C75.7296 100.259 77.1957 99.3001 78.9461 97.8685C79.7344 97.2239 79.8676 97.1177 80.3271 96.7673C80.5892 96.5676 80.9143 96.2994 81.0498 96.1713C81.1853 96.0431 81.5794 95.6935 81.9256 95.3943C82.2717 95.0952 82.7243 94.7014 82.931 94.5193C83.1379 94.3372 83.4076 94.1094 83.5307 94.0132C83.6535 93.9169 84.2715 93.3656 84.904 92.7881C85.5363 92.2106 86.2917 91.5283 86.5823 91.2718C88.3097 89.7484 89.8073 87.6684 90.5308 85.7878C90.9456 84.7095 91.0342 84.3927 91.2634 83.1693C91.5525 81.6263 91.5514 80.0687 91.2603 78.4694C90.6166 74.9336 89.8163 73.2282 87.14 69.6897C86.4655 68.7978 84.2352 66.3685 81.4608 63.5033C80.7772 62.7975 79.3245 61.2768 78.2324 60.1239C76.255 58.0365 74.7534 56.4706 71.7438 53.3567C70.8734 52.4562 69.6906 51.2224 69.1154 50.6149C66.2739 47.6139 60.6168 42.0585 59.7721 41.4394C58.6146 40.5913 58.5632 40.5594 57.5558 40.0619C56.0495 39.318 54.7878 38.9656 53.2587 38.8618C52.6944 38.8234 52.2085 38.7532 52.1792 38.7057C52.005 38.4243 53.6197 37.8303 55.0607 37.6457L56.0956 37.5132L57.1358 37.6464C57.7639 37.7269 58.5392 37.9261 59.0925 38.1493C59.9556 38.4973 61.2454 39.187 61.5468 39.4616C61.6216 39.5297 61.8579 39.7168 62.0719 39.8772C62.5318 40.2218 63.9522 41.5084 64.4417 42.0235C64.6308 42.2227 65.551 43.1732 66.4865 44.1357C67.4219 45.0983 68.7865 46.5158 69.5187 47.2859C70.2509 48.0559 71.437 49.2897 72.1544 50.0277C72.8718 50.7656 74.4269 52.3932 75.61 53.6445C78.8265 57.0461 79.7443 58.0085 81.1174 59.4195C81.8045 60.1256 82.5074 60.8607 82.6795 61.0532C82.8516 61.2457 83.3959 61.8233 83.8891 62.3366C84.3823 62.85 85.1732 63.69 85.6468 64.2034C86.1204 64.7167 86.9088 65.5568 87.3989 66.0701C88.1416 66.8482 88.7276 67.518 89.5641 68.5455C89.8799 68.9332 90.3824 69.6342 90.759 70.212C91.2247 70.9266 92.5139 73.3753 92.6632 73.8289C92.7159 73.9893 92.8716 74.4093 93.009 74.7622C93.6168 76.3231 94.0616 78.7639 94.0616 80.5383C94.0616 81.2041 94.1082 81.7776 94.1652 81.8127C94.3318 81.9156 96.2109 79.247 96.8267 78.033L97.391 76.9207L97.3757 75.8123L97.3602 74.7039L96.8228 73.0949C96.5272 72.2098 96.1003 71.1017 95.8744 70.6325C95.6484 70.1631 95.4635 69.752 95.4635 69.7187C95.4635 69.6009 94.3591 67.811 93.8961 67.1785C93.4433 66.5598 92.6359 65.5711 91.9019 64.7368C90.5252 63.1718 90.176 62.8025 85.7091 58.1878C84.6811 57.1258 82.9726 55.3418 81.9125 54.2235C80.8524 53.1052 79.3476 51.5329 78.5686 50.7297C77.7895 49.9265 76.8695 48.9569 76.5242 48.5749C76.1789 48.1929 75.7386 47.7204 75.5459 47.5248C75.3531 47.3293 74.4628 46.3817 73.5675 45.4191C67.5978 39.0013 65.5976 37.015 64.0924 36.0092C61.6384 34.3696 60.1805 33.723 57.8109 33.2234L56.7381 32.9971L54.9858 33.004L53.2335 33.0109L52.1821 33.2339ZM160.707 45.7835C160.273 46.1536 157.049 48.5607 156.306 49.0696C156.005 49.2753 155.69 49.5118 155.605 49.5953C155.519 49.6788 155.187 49.9262 154.866 50.1452C154.281 50.5437 153.403 51.1862 153.034 51.486C152.925 51.5738 152.689 51.7388 152.508 51.8527C152.327 51.9666 151.638 52.4688 150.977 52.9688C150.316 53.4688 149.729 53.8779 149.672 53.8779C149.616 53.8779 149.552 53.9223 149.531 53.9767C149.51 54.0311 149.124 54.3374 148.674 54.6576C148.225 54.9776 147.402 55.5764 146.847 55.988C146.292 56.3996 145.74 56.8037 145.62 56.8859C145.156 57.2061 143.3 58.5471 141.548 59.8282C137.201 63.0064 135.955 63.9097 134.709 64.7867C134.344 65.0434 133.894 65.3718 133.708 65.5165C133.035 66.042 131.351 67.2548 130.213 68.0338C129.573 68.4722 128.707 69.0882 128.289 69.4028C127.018 70.3605 124.898 71.8949 124.63 72.0522C124.49 72.1338 123.851 72.5844 123.21 73.0536L122.044 73.9064L121.691 74.5457C121.497 74.8973 121.228 75.3393 121.093 75.5278C120.958 75.7164 120.621 76.2906 120.344 76.804C120.067 77.3173 119.717 77.9333 119.567 78.1726C119.417 78.412 119.294 78.6345 119.294 78.667C119.294 78.6996 118.95 79.3175 118.529 80.0402C118.108 80.7629 117.709 81.4535 117.642 81.5747C117.515 81.8032 116.466 83.7159 115.907 84.7377C115.233 85.9691 114.93 86.5095 114.567 87.1295C114.36 87.4824 113.989 88.1387 113.743 88.5879C113.497 89.0371 113.208 89.5637 113.099 89.7582C112.991 89.9526 112.681 90.5216 112.41 91.0226C112.14 91.5235 111.82 92.0995 111.7 92.3024C111.579 92.5054 111.248 93.0915 110.964 93.6048C110.68 94.1182 110.204 94.9721 109.906 95.5024C109.608 96.0326 109.365 96.5182 109.365 96.5816C109.365 96.6448 109.324 96.6966 109.274 96.6966C109.224 96.6966 109.123 96.8541 109.05 97.0466C108.972 97.2544 108.963 97.3967 109.029 97.3967C109.091 97.3967 109.866 96.7797 110.752 96.0258C111.638 95.2718 112.59 94.4711 112.868 94.2465C113.146 94.0219 113.615 93.6242 113.91 93.3626C114.397 92.9309 115.582 91.9642 116.545 91.213C116.75 91.0526 117.01 90.8291 117.123 90.7161C117.337 90.5014 119.658 88.5336 120.528 87.8295C120.961 87.4789 123.059 85.7049 123.967 84.9216C124.128 84.783 124.496 84.4685 124.785 84.2227C125.074 83.9769 125.941 83.2393 126.712 82.5837C127.483 81.9281 128.272 81.2497 128.465 81.0761C128.657 80.9023 129.341 80.3166 129.983 79.7743C130.626 79.2322 131.204 78.7318 131.268 78.6625C131.333 78.5933 132.174 77.8587 133.137 77.0303C137.392 73.3735 143.126 68.306 144.819 66.707C145.269 66.2824 146.347 65.286 147.214 64.4928C151.587 60.4948 156.156 55.6343 157.785 53.2474C158.358 52.4084 159.831 49.9718 159.831 49.8631C159.831 49.8288 159.959 49.5237 160.115 49.185C160.793 47.7217 161.403 45.9016 161.303 45.6419C161.215 45.4139 161.111 45.4387 160.707 45.7835ZM96.2812 92.8037C95.2073 92.9337 93.776 94.0318 93.1705 95.1903L92.8406 95.8216L92.8384 96.9883L92.8363 98.155L93.1405 98.7967C93.5917 99.748 94.2922 100.468 95.203 100.917L95.9891 101.305L97.0989 101.3L98.2087 101.296L98.7344 101.017C99.9118 100.393 100.773 99.4543 101.129 98.4073C101.367 97.7061 101.37 96.4357 101.135 95.7763C100.91 95.1443 100.052 93.9738 99.5314 93.5881C98.6677 92.9483 97.4713 92.6596 96.2812 92.8037ZM84.4628 97.6095C80.3611 101.317 75.7626 104.752 72.2749 106.715C71.5682 107.113 70.9111 107.488 70.8147 107.549C69.6374 108.295 65.9576 109.875 64.0392 110.458C63.5574 110.605 63.0386 110.772 62.8863 110.831C62.7341 110.89 62.0507 111.053 61.3677 111.192L60.1258 111.446L57.2637 111.446L54.4017 111.447L52.7078 111.184C51.7762 111.039 50.8037 110.86 50.5467 110.786C50.2591 110.703 49.1134 110.651 47.5678 110.65L45.0562 110.649L43.4192 111.074C41.7576 111.505 41.3312 111.659 39.9746 112.32C39.1713 112.712 39.0426 112.784 38.2457 113.293C37.9694 113.47 37.7154 113.614 37.6812 113.614C37.6471 113.614 37.3737 113.81 37.0737 114.05C34.7486 115.907 33.2086 117.634 32.215 119.501C32.0497 119.811 31.871 120.123 31.8177 120.194C31.7183 120.326 30.7797 122.568 30.5178 123.298C30.4373 123.523 30.3265 123.961 30.2717 124.272C30.217 124.583 30.1188 125.003 30.0535 125.206C29.8459 125.849 29.7298 127.996 29.8256 129.422C29.9176 130.789 30.1698 132.117 30.472 132.824C30.5584 133.027 30.6291 133.25 30.6291 133.32C30.6291 133.428 31.1113 134.446 31.4632 135.082C31.5166 135.178 31.6388 135.414 31.7348 135.607C31.9181 135.974 32.1656 136.383 32.2646 136.482C32.4405 136.658 32.8486 137.307 32.8486 137.411C32.8486 137.477 32.9275 137.532 33.0239 137.532C33.1203 137.532 33.1991 137.584 33.1991 137.649C33.1991 137.789 33.3815 137.972 34.3707 138.827C35.8781 140.128 35.9593 140.187 36.6161 140.457C36.7927 140.529 36.9373 140.623 36.9373 140.666C36.9373 140.709 37.2659 140.871 37.6674 141.026C38.069 141.181 38.4501 141.345 38.5144 141.39C38.5786 141.435 38.8152 141.511 39.04 141.559C39.2649 141.606 39.5526 141.717 39.6794 141.805C39.806 141.893 40.0231 141.965 40.1615 141.965C40.3 141.965 40.5906 142.037 40.8073 142.125C41.8649 142.554 46.5745 142.558 47.9098 142.131C48.1944 142.04 48.5282 141.965 48.6515 141.965C48.7749 141.965 49.0416 141.896 49.244 141.81C49.4465 141.725 49.9013 141.563 50.2546 141.449C50.9135 141.238 51.9027 140.797 52.0069 140.668C52.039 140.629 52.3544 140.463 52.7078 140.3C53.0612 140.136 53.5314 139.867 53.7526 139.701C54.4516 139.176 55.2038 139.319 56.004 140.128C56.1785 140.304 56.3572 140.449 56.401 140.449C56.445 140.449 56.6591 140.632 56.8768 140.856C57.3067 141.298 57.6905 141.448 58.0789 141.325C58.3698 141.232 60.2246 139.352 60.5468 138.823C60.8308 138.357 60.8255 138.235 60.5055 137.878C59.6326 136.906 58.6956 135.82 58.6235 135.698C58.5235 135.529 58.8419 134.839 59.4998 133.798C60.4141 132.353 61.1744 130.666 61.5502 129.248C61.8238 128.216 62.0609 127.257 62.2281 126.506C62.6422 124.647 62.756 124.211 63.0972 123.181C63.4921 121.989 64.3442 120.146 64.8503 119.389C65.9181 117.793 66.4349 117.164 67.6022 116.04C68.4749 115.2 71.1813 113.147 71.4163 113.147C71.4735 113.147 71.7426 113.005 72.0144 112.83C72.4585 112.545 73.2697 112.131 74.4361 111.594C75.5054 111.101 79.0454 109.881 79.4036 109.881C79.4837 109.881 79.8051 109.806 80.1176 109.715C80.9535 109.471 82.7079 109.179 83.3339 109.18C83.6339 109.18 83.9624 109.149 84.0641 109.11L84.2489 109.039L84.2509 106.397L84.2528 103.755L84.4775 101.889C84.7269 99.8152 84.9826 98.3243 85.1739 97.8266C85.3285 97.4247 85.3376 97.0466 85.1929 97.0466C85.1338 97.0466 84.8052 97.2999 84.4628 97.6095ZM114.02 97.6669C113.85 97.7606 113.377 98.1204 112.969 98.4665C112.561 98.8128 112.07 99.2256 111.877 99.3839C111.685 99.5423 111.056 100.144 110.478 100.722L109.429 101.772L109.695 101.81C109.841 101.831 110.204 101.765 110.502 101.664C111.558 101.304 114.717 101.5 116.203 102.016C116.462 102.106 116.78 102.18 116.91 102.18C117.041 102.18 117.249 102.257 117.374 102.352C117.498 102.446 117.698 102.525 117.816 102.527C117.935 102.529 118.171 102.607 118.342 102.7C118.512 102.793 118.941 103.006 119.294 103.171C119.931 103.471 120.35 103.701 120.463 103.814C120.495 103.846 120.758 104.03 121.047 104.222C121.336 104.414 121.599 104.601 121.631 104.637C121.663 104.674 122.215 105.102 122.857 105.588C124.17 106.582 125.979 108.374 132.479 115.114C133.676 116.355 135.025 117.747 135.476 118.205C138.737 121.524 148.416 131.646 149.271 132.632C149.521 132.92 149.757 133.183 149.795 133.215C149.939 133.335 150.958 134.848 151.07 135.105C151.133 135.253 151.234 135.452 151.293 135.549C151.55 135.966 151.875 136.726 152.19 137.649L152.529 138.64L152.518 140.449L152.508 142.257L152.158 143.142C151.776 144.107 151.009 145.349 150.795 145.349H150.66L150.656 143.161L150.652 140.974L150.409 140.157C149.563 137.319 148.615 135.831 145.695 132.757C143.806 130.768 142.685 129.595 140.738 127.572C137.327 124.028 137.03 123.718 135.674 122.306C134.996 121.6 133.855 120.419 133.139 119.681C132.422 118.943 131.448 117.919 130.973 117.406C124.825 110.758 121.56 107.611 119.567 106.409C118.829 105.964 117.242 105.214 117.037 105.214C116.955 105.214 116.838 105.169 116.777 105.114C116.452 104.821 113.565 104.162 112.624 104.166C111.871 104.169 109.816 104.478 109.105 104.695C105.928 105.665 103.03 108.219 100.639 112.159C99.7673 113.594 99.4943 114.069 98.9626 115.073C98.6228 115.714 98.1714 116.554 97.9595 116.939C97.2223 118.279 95.6006 121.608 95.53 121.927C95.4855 122.128 95.5077 122.248 95.5896 122.248C95.6615 122.248 96.5955 121.386 97.6654 120.332C98.7352 119.278 99.7682 118.273 99.961 118.098C100.791 117.346 105.283 112.998 107.715 110.593C109.169 109.156 110.516 107.883 110.708 107.764C111.501 107.275 112.593 107.746 112.879 108.701L113.012 109.143L112.824 109.506C112.72 109.706 110.651 111.837 108.226 114.243C101.859 120.557 98.3882 124.022 97.8874 124.564L97.4494 125.038V125.51C97.4494 126.031 97.7185 126.394 98.1942 126.513C98.5817 126.61 98.9296 126.403 99.8683 125.515C100.309 125.098 101.503 123.969 102.521 123.006C103.539 122.044 104.668 120.976 105.029 120.633C105.39 120.291 107.472 118.264 109.657 116.129C111.841 113.994 113.882 112.029 114.191 111.764L114.753 111.281L115.301 111.285C116.108 111.29 116.724 111.899 116.724 112.69V113.114L116.332 113.626C116.116 113.908 115.462 114.585 114.878 115.131C113.296 116.61 103.948 125.811 102.23 127.58L101.188 128.654V129.1C101.188 129.664 101.444 130.033 101.923 130.161L102.297 130.261L102.793 129.925C103.412 129.504 105.854 127.154 114.739 118.43C118.063 115.166 118.38 114.899 118.926 114.898C119.371 114.897 119.917 115.219 120.215 115.657L120.493 116.065L120.431 116.531L120.368 116.996L119.685 117.709C119.31 118.101 118.615 118.797 118.142 119.256C111.771 125.429 105.144 132.007 104.923 132.376C104.617 132.887 104.632 133.125 104.995 133.556L105.297 133.915L105.783 133.912L106.269 133.909L107.379 132.844C107.989 132.258 109.619 130.7 111 129.381C112.382 128.063 115.337 125.2 117.567 123.02C119.797 120.84 121.784 118.954 121.982 118.829L122.342 118.602L122.816 118.665C123.912 118.812 124.44 119.953 123.852 120.904C123.721 121.116 121.789 123.067 119.56 125.239C117.331 127.412 113.915 130.765 111.968 132.69L108.43 136.19L108.43 136.517C108.43 136.923 108.71 137.48 108.961 137.576C109.56 137.805 109.928 137.643 110.847 136.745C111.159 136.44 112.36 135.276 113.515 134.158C114.67 133.041 116.642 131.125 117.898 129.9C119.153 128.675 121.252 126.628 122.562 125.351C125.086 122.89 125.734 122.365 126.248 122.365C126.621 122.365 127.279 122.742 127.53 123.1C127.627 123.237 127.705 123.599 127.705 123.904V124.458L126.157 126.007C125.305 126.859 122.119 129.998 119.078 132.982C116.037 135.966 113.212 138.746 112.8 139.16L112.052 139.912V140.338C112.052 140.629 112.143 140.863 112.338 141.073L112.625 141.382H113.054H113.484L114.545 140.361C115.129 139.8 116.458 138.506 117.499 137.487C118.54 136.467 119.443 135.601 119.505 135.561C119.568 135.522 121.706 133.443 124.258 130.94C126.809 128.437 128.975 126.346 129.069 126.292C129.164 126.238 129.401 126.148 129.596 126.092L129.951 125.99L130.376 126.207C131.151 126.602 131.478 127.17 131.365 127.927L131.299 128.373L127.592 132.048C125.554 134.07 122.221 137.35 120.185 139.338C118.15 141.327 116.355 143.141 116.196 143.37C115.69 144.099 115.85 144.951 116.556 145.286L116.992 145.492L117.413 145.362C117.683 145.278 118.234 144.845 118.949 144.153C119.562 143.559 121.163 142.024 122.507 140.74C125.217 138.152 127.778 135.681 130.859 132.684C131.984 131.59 133.052 130.621 133.234 130.53C134.209 130.045 135.415 130.871 135.415 132.024V132.496L134.841 133.124C134.525 133.47 133.804 134.196 133.24 134.738C132.676 135.28 131.713 136.223 131.099 136.834C130.485 137.445 128.301 139.581 126.245 141.58C120.486 147.181 120.214 147.457 120.037 147.879L119.872 148.274L119.99 148.713C120.211 149.533 121.264 149.953 121.842 149.452C122.054 149.269 125.3 146.194 126.711 144.841C130.16 141.533 132.928 138.858 134.603 137.213C135.731 136.106 136.832 135.068 137.05 134.908L137.447 134.615H137.954H138.462L138.939 135.06L139.416 135.504L139.425 135.964C139.43 136.217 139.398 136.559 139.355 136.725C139.285 136.992 136.603 139.676 126.013 150.074L124.112 151.941L124.029 152.323L123.947 152.705L124.172 153.14L124.397 153.574L124.841 153.723L125.285 153.871L125.765 153.634C126.252 153.393 126.834 152.872 129.46 150.326C130.265 149.546 131.579 148.281 132.381 147.514C133.182 146.748 135.354 144.648 137.206 142.847C139.058 141.047 140.766 139.456 141.002 139.312C141.59 138.953 142.057 138.977 142.635 139.395C142.968 139.637 143.157 139.884 143.254 140.208L143.394 140.674L143.196 141.191L142.999 141.708L141.397 143.257C140.517 144.109 137.877 146.679 135.532 148.969C133.187 151.258 130.726 153.651 130.063 154.286C128.711 155.582 128.056 156.397 128.056 156.783C128.056 156.926 128.17 157.246 128.31 157.495L128.565 157.947L128.949 158.019L129.333 158.091L129.833 157.844C130.109 157.709 130.92 157.034 131.636 156.344C134.945 153.161 136.963 151.237 137.048 151.183C137.099 151.151 138.23 150.074 139.562 148.791C140.893 147.507 142.568 145.893 143.284 145.204C144.124 144.395 144.758 143.884 145.073 143.763L145.56 143.575L145.972 143.71C146.199 143.785 146.545 144.029 146.741 144.252L147.097 144.657L147.089 145.207C147.085 145.51 147.045 145.845 147.002 145.952C146.9 146.201 146.332 146.794 144.394 148.674C143.535 149.508 141.51 151.477 139.896 153.049C138.281 154.622 136.009 156.824 134.846 157.944C133.684 159.064 132.653 160.149 132.555 160.354C132.458 160.559 132.378 160.916 132.378 161.147V161.567L132.933 162.139C133.655 162.882 134.16 163.083 135.306 163.083C137.031 163.083 138.297 162.637 141.432 160.925C142.511 160.336 146.262 157.851 146.703 157.433C146.776 157.364 146.954 157.229 147.099 157.133C147.442 156.905 149.007 155.717 149.083 155.627C149.115 155.589 149.483 155.273 149.901 154.924C151.433 153.646 152.835 152.147 154.439 150.074C154.489 150.009 154.73 149.589 154.975 149.14C155.22 148.691 155.464 148.27 155.517 148.203C155.636 148.052 156.293 146.309 156.525 145.524C156.861 144.391 157.047 143.054 157.106 141.344L157.165 139.615L156.976 138.603C156.672 136.975 156.087 135.082 155.633 134.257C155.578 134.156 155.386 133.788 155.208 133.44C154.528 132.112 153.106 130.282 151.4 128.54C150.736 127.862 149.805 126.891 149.331 126.382C148.388 125.368 147.2 124.13 144.352 121.191C143.324 120.131 141.477 118.215 140.247 116.934C139.017 115.654 137.396 113.976 136.646 113.206C135.896 112.436 134.991 111.491 134.635 111.106C132.902 109.228 126.749 103.016 126.021 102.408C124.171 100.865 121.299 99.1458 119.369 98.4272C117.766 97.8302 116.872 97.626 115.575 97.56L114.33 97.4968L114.02 97.6669ZM46.7501 115.431C46.5894 115.458 46.09 115.538 45.6403 115.609C44.5617 115.779 42.7913 116.348 41.9735 116.786C41.2031 117.199 40.5242 117.6 40.4419 117.692C40.4097 117.728 40.1555 117.911 39.8772 118.1C39.1725 118.577 37.4837 120.295 36.9526 121.074C34.9472 124.016 34.1526 127.506 34.8655 130.24C34.9659 130.625 35.0982 131.131 35.1597 131.365C35.3502 132.089 36.1446 133.433 36.9105 134.328C37.7599 135.32 38.8155 136.099 40.1856 136.743L41.1559 137.199L42.4635 137.432L43.7712 137.665L44.7057 137.594C48.1609 137.333 50.9919 136.051 53.4136 133.651C54.0561 133.015 54.2159 132.826 54.9657 131.815C55.5971 130.964 56.4008 129.372 56.6738 128.432C56.8135 127.95 56.9856 127.425 57.0563 127.265C57.1268 127.104 57.2087 126.147 57.2382 125.137L57.2915 123.301L57.0982 122.687C56.5049 120.803 56.3948 120.498 56.3079 120.498C56.2554 120.498 56.2124 120.43 56.2124 120.346C56.2124 120.107 55.2193 118.806 54.4511 118.039C53.8317 117.42 52.6251 116.531 52.405 116.531C52.3608 116.531 52.1085 116.432 51.8445 116.31C50.5658 115.721 47.8283 115.249 46.7501 115.431ZM73.9104 140.219C73.6534 140.268 73.2329 140.345 72.9759 140.388C71.8217 140.582 69.854 141.397 68.9826 142.041C68.7781 142.192 68.5648 142.316 68.5087 142.316C68.148 142.316 66.0341 144.445 65.1863 145.663C63.9342 147.461 63.3023 148.879 62.8574 150.891L62.6251 151.941L62.6687 153.749L62.7123 155.558L63.0337 156.491C63.4548 157.714 63.6334 158.09 64.2259 159C65.2006 160.496 66.5844 161.626 68.3615 162.378C72.276 164.033 77.5617 162.642 80.9779 159.058C82.3579 157.61 83.202 156.401 83.7261 155.122C83.8908 154.72 84.0712 154.286 84.1268 154.158C84.591 153.087 84.9983 150.743 84.9071 149.666C84.7599 147.925 84.5764 147.061 84.126 145.991C84.0719 145.862 83.9094 145.469 83.7648 145.116C83.6201 144.763 83.3939 144.316 83.262 144.124C82.9003 143.596 81.4478 142.187 80.8573 141.791C80.5702 141.598 80.3092 141.415 80.2769 141.382C80.1571 141.262 79.4355 140.915 79.3038 140.915C79.2287 140.914 79.0205 140.837 78.8411 140.744C78.5392 140.587 78.1472 140.487 76.7725 140.216C76.14 140.092 74.5576 140.093 73.9104 140.219ZM63.6888 186.301C63.6888 186.365 63.7939 186.418 63.9224 186.418C64.0509 186.418 64.156 186.365 64.156 186.301C64.156 186.237 64.0509 186.184 63.9224 186.184C63.7939 186.184 63.6888 186.237 63.6888 186.301Z" fill="black"/>
</svg>
